<svg width="28" height="28" viewBox="0 0 28 28" fill="none" xmlns="http://www.w3.org/2000/svg">
<path d="M14.6306 3.7475C15.288 3.15775 16.3333 3.62384 16.3333 4.50642V23.4998C16.3333 24.3829 15.288 24.849 14.6306 24.2593L9.84375 19.9624C9.33535 19.5058 8.67616 19.2532 7.99283 19.2531H5.25C4.43777 19.2531 3.65882 18.9304 3.08449 18.3561C2.51016 17.7818 2.1875 17.0028 2.1875 16.1906V11.8156C2.1875 10.1239 3.55833 8.75309 5.25 8.75309H7.99283C8.67616 8.75296 9.33535 8.50034 9.84375 8.04375L14.6306 3.7475ZM21.1972 4.90075C21.3293 4.75974 21.5121 4.67696 21.7052 4.67062C21.8984 4.66428 22.0862 4.73488 22.2273 4.86692L22.2285 4.86809L22.2302 4.86925L22.2337 4.87275L22.2448 4.88325L22.2798 4.91709C22.3086 4.94625 22.3479 4.98709 22.3977 5.03959C22.4968 5.144 22.6333 5.29625 22.7955 5.49575C23.2386 6.04407 23.6322 6.63068 23.9715 7.24867C24.822 8.7875 25.6667 11.059 25.6667 14.0031C25.6667 16.9472 24.822 19.2181 23.9715 20.7581C23.6322 21.3759 23.2386 21.9623 22.7955 22.5104C22.6321 22.7108 22.4598 22.9039 22.2792 23.0891L22.2442 23.1229L22.2337 23.1334L22.2302 23.1369L22.2285 23.1381C22.2285 23.1381 22.6135 22.7531 22.2273 23.1387C22.0856 23.2663 21.8995 23.3332 21.7089 23.3252C21.5184 23.3172 21.3386 23.2349 21.208 23.0958C21.0774 22.9568 21.0065 22.7722 21.0105 22.5815C21.0145 22.3908 21.093 22.2093 21.2292 22.0758L21.2304 22.0753L21.2322 22.0735L21.2508 22.0548C21.2691 22.0369 21.2977 22.0078 21.3366 21.9673C21.413 21.8857 21.5267 21.7597 21.665 21.5893C22.053 21.1083 22.3977 20.5939 22.6952 20.0523C23.4488 18.6896 24.2083 16.659 24.2083 14.0031C24.2083 11.3472 23.4488 9.31659 22.6952 7.95392C22.3977 7.41204 22.053 6.89748 21.665 6.41625C21.5339 6.25502 21.3957 6.09969 21.2508 5.95075L21.2322 5.93209L21.2304 5.93034L21.2292 5.92917C21.0888 5.79681 21.0066 5.61418 21.0006 5.4213C20.9946 5.22842 21.0653 5.04161 21.1972 4.90075ZM18.8615 8.40309C18.9266 8.33286 19.005 8.27615 19.092 8.2362C19.1791 8.19626 19.2732 8.17386 19.3689 8.17028C19.4646 8.16671 19.5601 8.18203 19.6499 8.21536C19.7397 8.2487 19.8221 8.29941 19.8923 8.36459L19.9296 8.40075L19.8923 8.36575L19.894 8.36692L19.8969 8.36984L19.9051 8.37684L19.9296 8.40075C19.9494 8.4202 19.9761 8.44722 20.0095 8.48184C20.0754 8.55067 20.1664 8.64925 20.2732 8.77642C20.4867 9.03075 20.7673 9.40175 21.0467 9.88067C21.7791 11.1311 22.1657 12.5539 22.1667 14.0031C22.1667 15.7665 21.6049 17.1683 21.0467 18.1261C20.7667 18.6044 20.4867 18.976 20.2732 19.2303C20.164 19.3605 20.0491 19.4859 19.929 19.606L19.9179 19.6171L19.9051 19.6293L19.8969 19.6369L19.894 19.6398L19.8923 19.6416C19.7503 19.7701 19.5634 19.8376 19.3721 19.8295C19.1808 19.8214 19.0003 19.7384 18.8697 19.5983C18.7391 19.4583 18.6688 19.2725 18.674 19.0811C18.6793 18.8896 18.7596 18.7079 18.8977 18.5753L18.8988 18.5741L18.9082 18.5648L18.9578 18.5146C19.0262 18.4426 19.0924 18.3685 19.1561 18.2923C19.3253 18.0905 19.5557 17.7872 19.7867 17.3911C20.3892 16.3636 20.7073 15.1942 20.7083 14.0031C20.7083 12.5582 20.2492 11.4078 19.7867 10.6157C19.5557 10.219 19.3258 9.91567 19.1567 9.71442C19.0775 9.62038 18.9946 9.5295 18.9082 9.442L18.8982 9.43209L18.8988 9.43267C18.7575 9.301 18.6742 9.11863 18.6672 8.9256C18.6602 8.73257 18.7301 8.54465 18.8615 8.40309Z" fill="#3A3458"/>
</svg>
